Coordinates
version=1
nRows=20
nColumns=33
inDegrees=yes

Units are S.I. units (second, meters, Newtons, ...)
Angles are in degrees.

endheader
time	ground_thorax_rot_x	ground_thorax_rot_y	ground_thorax_rot_z	ground_thorax_tx	ground_thorax_ty	ground_thorax_tz	clav_prot_r	clav_elev_r	scapula_abduction_r	scapula_elevation_r	scapula_upward_rot_r	scapula_winging_r	shoulder_elv_r	plane_of_elev_r	axial_rot_r	elbow_flexion_r	pro_sup_r	wrist_flex_r	wrist_dev_r	clav_prot_l	clav_elev_l	scapula_abduction_l	scapula_elevation_l	scapula_upward_rot_l	scapula_winging_l	shoulder_elv_l	plane_of_elev_l	axial_rot_l	elbow_flexion_l	pro_sup_l	wrist_flex_l	wrist_dev_l	
3.6100	38.058654	4.989032	16.847404	-186.342397	849.519012	-11.140071	13.504108	36.373402	33.702057	45.000000	-45.000000	2075.714264	-1733.623006	30.571970	73.242289	1453.293485	33.775039	18.282415	6.893387	8.168720	-45.000000	-35.760841	45.000000	-21.840122	-613.408335	-3152.929143	12.751804	180.000000	5.734199	231.053692	12.090426	-18.929508	
3.6200	38.173374	4.981372	16.654895	-186.908013	850.442734	-11.032454	13.507743	36.395205	33.816673	45.000000	-45.000000	2075.625578	-1733.587758	30.627810	72.980110	1453.319504	33.719666	18.211627	6.879053	7.950703	-45.000000	-35.683348	45.000000	-21.703107	-613.377482	-3152.867886	12.723509	180.000000	5.817025	230.928605	12.086165	-18.985337	
3.6300	38.290798	4.944693	16.442075	-187.412025	851.318405	-10.928297	13.463148	36.445803	33.964208	45.000000	-45.000000	2075.528407	-1733.585049	30.692477	72.714154	1453.334270	33.661109	18.098817	6.887825	7.663304	-45.000000	-35.564035	45.000000	-21.583805	-613.385841	-3152.801866	12.701515	180.000000	5.894200	230.796150	12.049913	-19.061891	
3.6400	38.385788	4.975177	16.287565	-187.776632	852.089055	-10.831307	13.453913	36.459961	34.049850	45.000000	-45.000000	2075.460455	-1733.551194	30.739840	72.526470	1453.358063	33.588390	18.035780	6.874625	7.544195	-45.000000	-35.531306	45.000000	-21.480355	-613.351920	-3152.745789	12.679847	180.000000	5.954184	230.654954	12.035357	-19.111030	
3.6500	38.463624	5.042958	16.169787	-188.000260	852.752628	-10.741342	13.461846	36.455772	34.099407	45.000000	-44.999999	2075.419700	-1733.505038	30.773412	72.387305	1453.376880	33.511782	18.006385	6.851022	7.496455	-45.000000	-35.540974	45.000000	-21.397170	-613.307149	-3152.692096	12.659039	180.000000	5.995241	230.513009	12.031613	-19.146959	
3.6600	38.530214	5.124615	16.069735	-188.072547	853.301955	-10.658425	13.454997	36.448960	34.134421	45.000000	-44.999999	2075.393030	-1733.460489	30.806057	72.290249	1453.400283	33.439397	17.972352	6.829706	7.514264	-45.000000	-35.581042	45.000000	-21.330498	-613.265634	-3152.652092	12.645351	180.000000	6.020919	230.379562	12.017901	-19.184390	
3.6700	38.584105	5.220240	15.994919	-188.004959	853.747195	-10.581479	13.470667	36.432133	34.161069	45.000000	-44.999997	2075.387232	-1733.413851	30.824507	72.226572	1453.416941	33.389671	17.974719	6.800109	7.551734	-45.000000	-35.638806	45.000000	-21.278428	-613.230165	-3152.613651	12.633715	180.000000	6.027188	230.275763	12.016219	-19.215902	
3.6800	38.637124	5.293546	15.912580	-187.819165	854.107718	-10.509166	13.466478	36.432991	34.208068	45.000000	-44.999995	2075.375809	-1733.386807	30.853636	72.179887	1453.440657	33.378054	17.944297	6.779745	7.582926	-45.000000	-35.685780	45.000000	-21.230491	-613.220064	-3152.587290	12.633331	180.000000	6.023947	230.218330	11.992947	-19.264126	
3.6900	38.684339	5.363329	15.846873	-187.536939	854.404731	-10.440621	13.492314	36.426881	34.268469	45.000000	-44.999992	2075.374674	-1733.361303	30.865210	72.158285	1453.459349	33.425556	17.960196	6.749578	7.603548	-45.000000	-35.736658	45.000000	-21.181598	-613.215754	-3152.558488	12.630346	180.000000	6.000108	230.230194	11.986564	-19.310329	
3.7000	38.733411	5.405830	15.770729	-187.179123	854.660570	-10.375529	13.507119	36.440395	34.349967	45.000000	-44.999986	2075.356020	-1733.352127	30.893216	72.150096	1453.496529	33.541521	17.935482	6.722932	7.620124	-45.000000	-35.777943	45.000000	-21.121072	-613.228154	-3152.538938	12.637000	180.000000	5.971217	230.321610	11.958795	-19.373798	
3.7100	38.776374	5.444935	15.710805	-186.764725	854.897684	-10.313972	13.554894	36.444593	34.440910	45.000000	-44.999974	2075.342917	-1733.344519	30.904652	72.160478	1453.527104	33.742916	17.967972	6.684280	7.618268	-45.000000	-35.818145	45.000000	-21.045946	-613.240426	-3152.503060	12.641584	180.000000	5.925168	230.505128	11.952747	-19.432227	
3.7200	38.822302	5.459865	15.635521	-186.309612	855.137925	-10.256039	13.588721	36.467674	34.538136	45.000000	-44.999954	2075.315350	-1733.346828	30.932078	72.172186	1453.578067	34.028862	17.951507	6.647843	7.615802	-45.000000	-35.859465	45.000000	-20.946415	-613.260734	-3152.470694	12.652564	180.000000	5.874769	230.775089	11.924127	-19.507295	
3.7300	38.865310	5.476724	15.576103	-185.825823	855.401613	-10.201577	13.637572	36.474069	34.630974	45.000000	-44.999917	2075.299078	-1733.338568	30.941641	72.188136	1453.619689	34.407609	18.004946	6.602713	7.602705	-45.000000	-35.910377	45.000000	-20.819656	-613.273659	-3152.419478	12.655637	180.000000	5.812680	231.130125	11.920976	-19.576400	
3.7400	38.913498	5.471959	15.497142	-185.321007	855.707090	-10.150092	13.662772	36.498077	34.718138	45.000000	-44.999851	2075.272223	-1733.326848	30.971740	72.185858	1453.684621	34.867807	17.993592	6.557203	7.595324	-45.000000	-35.977067	45.000000	-20.659935	-613.291886	-3152.377163	12.661076	180.000000	5.751462	231.552369	11.893107	-19.662854	
3.7500	38.959489	5.469993	15.437228	-184.798732	856.070347	-10.100910	13.701558	36.501497	34.802341	45.000000	-44.999733	2075.255191	-1733.300595	30.992249	72.173912	1453.733643	35.414439	18.058095	6.504238	7.579004	-45.000000	-36.045801	45.000000	-20.465179	-613.301863	-3152.313150	12.659861	180.000000	5.690653	232.034147	11.893785	-19.741427	
3.7600	39.013923	5.447127	15.358624	-184.259149	856.504892	-10.053359	13.727361	36.521581	34.889757	45.000000	-44.999522	2075.226575	-1733.266990	31.026882	72.138053	1453.799561	36.039323	18.063378	6.450720	7.552410	-45.000000	-36.120159	45.000000	-20.243527	-613.326414	-3152.256371	12.658707	180.000000	5.640679	232.557982	11.873393	-19.833828	
3.7700	39.071060	5.418459	15.282715	-183.700399	857.021475	-10.006878	13.760126	36.524032	34.979137	45.000000	-44.999142	2075.200901	-1733.218960	31.057745	72.083719	1453.852629	36.740314	18.117956	6.385035	7.522353	-45.000000	-36.197688	45.000000	-19.988043	-613.351651	-3152.189546	12.655219	180.000000	5.595850	233.110443	11.876303	-19.924249	
3.7800	39.135928	5.361241	15.179166	-183.119612	857.628436	-9.960885	13.779625	36.546535	35.078828	45.000000	-44.998467	2075.162414	-1733.163066	31.102384	71.999607	1453.928926	37.503148	18.096535	6.316369	7.481688	-45.000000	-36.280298	45.000000	-19.702496	-613.395404	-3152.129299	12.652486	180.000000	5.559345	233.669872	11.853086	-20.026962	
3.7900	39.201018	5.286615	15.069494	-182.514002	858.331876	-9.914552	13.802881	36.554398	35.188816	45.000000	-44.997245	2075.121654	-1733.096412	31.153166	71.891330	1454.001870	38.320465	18.106084	6.232316	7.439066	-45.000000	-36.362336	45.000000	-19.382122	-613.439705	-3152.057860	12.649336	180.000000	5.522084	234.220820	11.847348	-20.131038	
3.8000	39.264199	5.195382	14.946349	-181.881111	859.136501	-9.866531	13.816525	36.576121	35.305074	45.000000	-44.995089	2075.075230	-1733.017007	31.208685	71.754169	1454.100216	39.184793	18.069605	6.150205	7.381249	-45.000000	-36.451261	45.000000	-19.037805	-613.497573	-3151.978854	12.644830	180.000000	5.490043	234.749922	11.822146	-20.237545	
